# xmcd
#
# Track frame offsets:
# 150
# 6894
# 19778
# 30445
# 54772
# 72264
# 80988
# 105586
# 125785
# 143580
# 171452
# 177972
# 198918
# 221933
# 237515
# 256182
# 267777
# 291332
# 303328
#
# Disc length: 4062 seconds
#
#
# Revision: 0
# Processed by: cddbd v1.5.2PL0 Copyright (c) Steve Scherf et al.
# Submitted via: FreeRIP 2.951 
#
DISCID=150fdc13
DTITLE=OutKast - The Love Below
DYEAR=2004
DGENRE=Hip-Hop
TTITLE0=The Love Below (Intro)
TTITLE1=Love Hater
TTITLE2=God (Interlude)
TTITLE3=Happy Valentine's Day
TTITLE4=Spread
TTITLE5=Where Are My Panties?
TTITLE6=Prototype
TTITLE7=She Lives in My Lap
TTITLE8=Hey Ya!
TTITLE9=Roses
TTITLE10=Good Day, Good Sir
TTITLE11=Behold a Lady
TTITLE12=Pink and Blue
TTITLE13=Love in War
TTITLE14=She's Alive
TTITLE15=Dracula's Wedding
TTITLE16=Vibrate
TTITLE17=Take Off Your Cool (with Norah Jones)
TTITLE18=A Life in the Day of Benjamin Andre (Incomplete)
EXTD=
EXTT0=
EXTT1=
EXTT2=
EXTT3=
EXTT4=
EXTT5=
EXTT6=
EXTT7=
EXTT8=
EXTT9=
EXTT10=
EXTT11=
EXTT12=
EXTT13=
EXTT14=
EXTT15=
EXTT16=
EXTT17=
EXTT18=
PLAYORDER=
